<svg width="175" height="24" viewBox="0 0 175 24" fill="none" xmlns="http://www.w3.org/2000/svg">
<path d="M8.5 22H17.26C17.41 22 17.56 21.93 17.65 21.81L19.5 19.5H10.74C10.59 19.5 10.44 19.57 10.35 19.69L8.5 22Z" fill="#AAA4EC"/>
<path d="M7.5 14V16.9C7.5 17.01 7.46 17.13 7.39 17.22L3.5 22.01H6.26C6.41 22.01 6.55 21.94 6.65 21.83L9.6 18.2C9.69 18.08 9.84 18.02 9.99 18.02H13C16.42 18.02 19.22 15.38 19.47 12.02H15.5L19.39 7.16C19.46 7.07 19.5 6.96 19.5 6.85V2C12.87 2 7.5 7.37 7.5 14Z" fill="#5548D9"/>
<path d="M39.513 8.786C39.1957 8.35533 38.782 8.04367 38.272 7.851C37.762 7.647 37.2633 7.545 36.776 7.545C36.1527 7.545 35.586 7.65833 35.076 7.885C34.566 8.11167 34.124 8.42333 33.75 8.82C33.3873 9.21667 33.104 9.68133 32.9 10.214C32.7073 10.7467 32.611 11.3247 32.611 11.948C32.611 12.6053 32.7073 13.206 32.9 13.75C33.0927 14.294 33.3647 14.7643 33.716 15.161C34.0787 15.5463 34.5093 15.8467 35.008 16.062C35.5067 16.2773 36.0677 16.385 36.691 16.385C37.337 16.385 37.9093 16.2603 38.408 16.011C38.9067 15.7503 39.309 15.4103 39.615 14.991L41.332 16.198C40.7993 16.8667 40.1477 17.388 39.377 17.762C38.6063 18.1247 37.7053 18.306 36.674 18.306C35.7333 18.306 34.8663 18.153 34.073 17.847C33.291 17.5297 32.6167 17.0933 32.05 16.538C31.4833 15.9713 31.0413 15.3027 30.724 14.532C30.4067 13.75 30.248 12.8887 30.248 11.948C30.248 10.9847 30.4123 10.1177 30.741 9.347C31.081 8.565 31.54 7.902 32.118 7.358C32.7073 6.814 33.3987 6.39467 34.192 6.1C34.9853 5.80533 35.8467 5.658 36.776 5.658C37.1613 5.658 37.5637 5.69767 37.983 5.777C38.4023 5.845 38.8047 5.95833 39.19 6.117C39.5753 6.26433 39.938 6.45133 40.278 6.678C40.618 6.90467 40.907 7.17667 41.145 7.494L39.513 8.786ZM41.8857 13.886C41.8857 13.24 41.999 12.6563 42.2257 12.135C42.4637 11.6023 42.781 11.149 43.1777 10.775C43.5744 10.401 44.0447 10.112 44.5887 9.908C45.1327 9.704 45.7107 9.602 46.3227 9.602C46.9347 9.602 47.5127 9.704 48.0567 9.908C48.6007 10.112 49.071 10.401 49.4677 10.775C49.8644 11.149 50.176 11.6023 50.4027 12.135C50.6407 12.6563 50.7597 13.24 50.7597 13.886C50.7597 14.532 50.6407 15.1213 50.4027 15.654C50.176 16.1867 49.8644 16.6457 49.4677 17.031C49.071 17.405 48.6007 17.6997 48.0567 17.915C47.5127 18.1303 46.9347 18.238 46.3227 18.238C45.7107 18.238 45.1327 18.1303 44.5887 17.915C44.0447 17.6997 43.5744 17.405 43.1777 17.031C42.781 16.6457 42.4637 16.1867 42.2257 15.654C41.999 15.1213 41.8857 14.532 41.8857 13.886ZM43.9597 13.886C43.9597 14.2033 44.005 14.5207 44.0957 14.838C44.1977 15.1553 44.345 15.4387 44.5377 15.688C44.7304 15.9373 44.974 16.1413 45.2687 16.3C45.5634 16.4587 45.9147 16.538 46.3227 16.538C46.7307 16.538 47.082 16.4587 47.3767 16.3C47.6714 16.1413 47.915 15.9373 48.1077 15.688C48.3004 15.4387 48.442 15.1553 48.5327 14.838C48.6347 14.5207 48.6857 14.2033 48.6857 13.886C48.6857 13.5687 48.6347 13.257 48.5327 12.951C48.442 12.6337 48.3004 12.3503 48.1077 12.101C47.915 11.8517 47.6714 11.6533 47.3767 11.506C47.082 11.3473 46.7307 11.268 46.3227 11.268C45.9147 11.268 45.5634 11.3473 45.2687 11.506C44.974 11.6533 44.7304 11.8517 44.5377 12.101C44.345 12.3503 44.1977 12.6337 44.0957 12.951C44.005 13.257 43.9597 13.5687 43.9597 13.886ZM52.7377 9.84H54.6757V11.149H54.7097C54.891 10.741 55.2027 10.384 55.6447 10.078C56.098 9.76067 56.6307 9.602 57.2427 9.602C57.7753 9.602 58.2287 9.69833 58.6027 9.891C58.988 10.0723 59.2997 10.316 59.5377 10.622C59.787 10.928 59.9683 11.2793 60.0817 11.676C60.195 12.0727 60.2517 12.4807 60.2517 12.9V18H58.2117V13.478C58.2117 13.24 58.1947 12.9907 58.1607 12.73C58.1267 12.4693 58.053 12.237 57.9397 12.033C57.8263 11.8177 57.6677 11.642 57.4637 11.506C57.271 11.37 57.0103 11.302 56.6817 11.302C56.353 11.302 56.0697 11.37 55.8317 11.506C55.5937 11.6307 55.3953 11.795 55.2367 11.999C55.0893 12.203 54.976 12.441 54.8967 12.713C54.8173 12.9737 54.7777 13.24 54.7777 13.512V18H52.7377V9.84ZM61.4592 11.472V9.84H62.8872V7.477H64.8932V9.84H66.9332V11.472H64.8932V15.263C64.8932 15.6257 64.9555 15.926 65.0802 16.164C65.2162 16.402 65.5109 16.521 65.9642 16.521C66.1002 16.521 66.2475 16.5097 66.4062 16.487C66.5649 16.453 66.7065 16.4077 66.8312 16.351L66.8992 17.949C66.7179 18.017 66.5025 18.068 66.2532 18.102C66.0039 18.1473 65.7659 18.17 65.5392 18.17C64.9952 18.17 64.5532 18.0963 64.2132 17.949C63.8732 17.7903 63.6012 17.5807 63.3972 17.32C63.2045 17.048 63.0685 16.742 62.9892 16.402C62.9212 16.0507 62.8872 15.6767 62.8872 15.28V11.472H61.4592ZM74.1555 13.104C74.1555 12.8433 74.1159 12.594 74.0365 12.356C73.9685 12.118 73.8552 11.9083 73.6965 11.727C73.5379 11.5457 73.3339 11.404 73.0845 11.302C72.8465 11.1887 72.5632 11.132 72.2345 11.132C71.6225 11.132 71.1012 11.319 70.6705 11.693C70.2512 12.0557 70.0189 12.526 69.9735 13.104H74.1555ZM76.1955 14.022C76.1955 14.1127 76.1955 14.2033 76.1955 14.294C76.1955 14.3847 76.1899 14.4753 76.1785 14.566H69.9735C69.9962 14.8607 70.0699 15.1327 70.1945 15.382C70.3305 15.62 70.5062 15.8297 70.7215 16.011C70.9369 16.181 71.1805 16.317 71.4525 16.419C71.7245 16.521 72.0079 16.572 72.3025 16.572C72.8125 16.572 73.2432 16.4813 73.5945 16.3C73.9459 16.1073 74.2349 15.8467 74.4615 15.518L75.8215 16.606C75.0169 17.694 73.8495 18.238 72.3195 18.238C71.6849 18.238 71.1012 18.1417 70.5685 17.949C70.0359 17.745 69.5712 17.4617 69.1745 17.099C68.7892 16.7363 68.4832 16.2943 68.2565 15.773C68.0412 15.2403 67.9335 14.6397 67.9335 13.971C67.9335 13.3137 68.0412 12.7187 68.2565 12.186C68.4832 11.642 68.7892 11.183 69.1745 10.809C69.5599 10.4237 70.0132 10.129 70.5345 9.925C71.0672 9.70967 71.6395 9.602 72.2515 9.602C72.8182 9.602 73.3395 9.69833 73.8155 9.891C74.3029 10.0723 74.7222 10.35 75.0735 10.724C75.4249 11.0867 75.6969 11.5457 75.8895 12.101C76.0935 12.645 76.1955 13.2853 76.1955 14.022ZM78.1713 9.84H80.1093V11.149H80.1433C80.3246 10.741 80.6363 10.384 81.0783 10.078C81.5316 9.76067 82.0643 9.602 82.6763 9.602C83.2089 9.602 83.6623 9.69833 84.0363 9.891C84.4216 10.0723 84.7333 10.316 84.9713 10.622C85.2206 10.928 85.4019 11.2793 85.5153 11.676C85.6286 12.0727 85.6853 12.4807 85.6853 12.9V18H83.6453V13.478C83.6453 13.24 83.6283 12.9907 83.5943 12.73C83.5603 12.4693 83.4866 12.237 83.3733 12.033C83.2599 11.8177 83.1013 11.642 82.8973 11.506C82.7046 11.37 82.4439 11.302 82.1153 11.302C81.7866 11.302 81.5033 11.37 81.2653 11.506C81.0273 11.6307 80.8289 11.795 80.6703 11.999C80.5229 12.203 80.4096 12.441 80.3303 12.713C80.2509 12.9737 80.2113 13.24 80.2113 13.512V18H78.1713V9.84ZM86.8928 11.472V9.84H88.3208V7.477H90.3268V9.84H92.3668V11.472H90.3268V15.263C90.3268 15.6257 90.3891 15.926 90.5138 16.164C90.6498 16.402 90.9445 16.521 91.3978 16.521C91.5338 16.521 91.6811 16.5097 91.8398 16.487C91.9985 16.453 92.1401 16.4077 92.2648 16.351L92.3328 17.949C92.1515 18.017 91.9361 18.068 91.6868 18.102C91.4375 18.1473 91.1995 18.17 90.9728 18.17C90.4288 18.17 89.9868 18.0963 89.6468 17.949C89.3068 17.7903 89.0348 17.5807 88.8308 17.32C88.6381 17.048 88.5021 16.742 88.4228 16.402C88.3548 16.0507 88.3208 15.6767 88.3208 15.28V11.472H86.8928ZM98.1951 5.964H100.337V10.826H105.964V5.964H108.106V18H105.964V12.662H100.337V18H98.1951V5.964ZM118.107 18H116.169V16.691H116.135C115.953 17.099 115.636 17.4617 115.183 17.779C114.741 18.085 114.214 18.238 113.602 18.238C113.069 18.238 112.61 18.1473 112.225 17.966C111.851 17.7733 111.539 17.524 111.29 17.218C111.052 16.912 110.876 16.5607 110.763 16.164C110.649 15.7673 110.593 15.3593 110.593 14.94V9.84H112.633V14.362C112.633 14.6 112.65 14.8493 112.684 15.11C112.718 15.3707 112.791 15.6087 112.905 15.824C113.018 16.028 113.171 16.198 113.364 16.334C113.568 16.47 113.834 16.538 114.163 16.538C114.48 16.538 114.758 16.4757 114.996 16.351C115.245 16.215 115.443 16.045 115.591 15.841C115.749 15.637 115.868 15.4047 115.948 15.144C116.027 14.872 116.067 14.6 116.067 14.328V9.84H118.107V18ZM122.629 5.148V10.877H122.68C122.782 10.741 122.912 10.5993 123.071 10.452C123.23 10.3047 123.417 10.1687 123.632 10.044C123.859 9.91933 124.119 9.81733 124.414 9.738C124.709 9.64733 125.043 9.602 125.417 9.602C125.995 9.602 126.528 9.71533 127.015 9.942C127.502 10.1573 127.922 10.4577 128.273 10.843C128.624 11.2283 128.896 11.6817 129.089 12.203C129.282 12.7243 129.378 13.2853 129.378 13.886C129.378 14.4867 129.282 15.0533 129.089 15.586C128.908 16.1073 128.641 16.5663 128.29 16.963C127.95 17.3483 127.531 17.66 127.032 17.898C126.545 18.1247 125.989 18.238 125.366 18.238C124.788 18.238 124.244 18.1133 123.734 17.864C123.235 17.6147 122.844 17.252 122.561 16.776H122.527V18H120.589V5.148H122.629ZM127.304 13.886C127.304 13.5687 127.253 13.257 127.151 12.951C127.06 12.6337 126.919 12.3503 126.726 12.101C126.533 11.8517 126.29 11.6533 125.995 11.506C125.7 11.3473 125.355 11.268 124.958 11.268C124.584 11.268 124.25 11.3473 123.955 11.506C123.66 11.6647 123.405 11.8687 123.19 12.118C122.986 12.3673 122.827 12.6507 122.714 12.968C122.612 13.2853 122.561 13.6027 122.561 13.92C122.561 14.2373 122.612 14.5547 122.714 14.872C122.827 15.178 122.986 15.4557 123.19 15.705C123.405 15.9543 123.66 16.1583 123.955 16.317C124.25 16.4643 124.584 16.538 124.958 16.538C125.355 16.538 125.7 16.4587 125.995 16.3C126.29 16.1413 126.533 15.9373 126.726 15.688C126.919 15.4387 127.06 15.1553 127.151 14.838C127.253 14.5207 127.304 14.2033 127.304 13.886ZM135.12 11.948C135.12 10.9847 135.279 10.1177 135.596 9.347C135.925 8.565 136.372 7.902 136.939 7.358C137.517 6.814 138.197 6.39467 138.979 6.1C139.772 5.80533 140.634 5.658 141.563 5.658C142.504 5.658 143.371 5.80533 144.164 6.1C144.957 6.39467 145.643 6.814 146.221 7.358C146.799 7.902 147.247 8.565 147.564 9.347C147.893 10.1177 148.057 10.9847 148.057 11.948C148.057 12.8887 147.893 13.75 147.564 14.532C147.247 15.3027 146.799 15.9713 146.221 16.538C145.643 17.0933 144.957 17.5297 144.164 17.847C143.371 18.153 142.504 18.306 141.563 18.306C140.634 18.306 139.772 18.153 138.979 17.847C138.197 17.5297 137.517 17.0933 136.939 16.538C136.372 15.9713 135.925 15.3027 135.596 14.532C135.279 13.75 135.12 12.8887 135.12 11.948ZM137.449 11.948C137.449 12.594 137.545 13.189 137.738 13.733C137.942 14.2657 138.225 14.7303 138.588 15.127C138.962 15.5237 139.398 15.8353 139.897 16.062C140.407 16.2773 140.968 16.385 141.58 16.385C142.192 16.385 142.753 16.2773 143.263 16.062C143.773 15.8353 144.209 15.5237 144.572 15.127C144.946 14.7303 145.229 14.2657 145.422 13.733C145.626 13.189 145.728 12.594 145.728 11.948C145.728 11.3247 145.626 10.7467 145.422 10.214C145.229 9.68133 144.952 9.21667 144.589 8.82C144.226 8.42333 143.79 8.11167 143.28 7.885C142.77 7.65833 142.203 7.545 141.58 7.545C140.957 7.545 140.39 7.65833 139.88 7.885C139.381 8.11167 138.951 8.42333 138.588 8.82C138.225 9.21667 137.942 9.68133 137.738 10.214C137.545 10.7467 137.449 11.3247 137.449 11.948ZM150.125 5.964H152.964L158.557 14.974H158.591V5.964H160.733V18H158.013L152.301 8.701H152.267V18H150.125V5.964ZM163.389 5.964H171.362V7.834H165.531V10.894H171.056V12.696H165.531V16.096H171.668V18H163.389V5.964Z" fill="black"/>
</svg>
